<svg width="176" height="34" viewBox="0 0 176 34" fill="none" xmlns="http://www.w3.org/2000/svg">
<path d="M12.4351 15.327H19.7189C20.3811 15.327 20.9145 14.7868 20.9145 14.1245V1.20769C20.9145 0.541691 20.3774 0.00518799 19.7189 0.00518799H1.82205C1.15989 0.00518799 0.626478 0.545391 0.626478 1.20769V28.4731C0.626478 28.4731 0.449901 32.3138 4.54797 33.3868C5.3021 33.5829 6.04152 33.002 6.03784 32.2139L5.97162 6.34702C5.97162 5.68842 6.49768 5.14822 7.15248 5.14082L10.0255 5.10012C10.6914 5.09272 11.2395 5.63292 11.2395 6.30262V14.1171C11.2395 14.7868 11.7766 15.327 12.4351 15.327Z" fill="#00CAB9"/>
<path d="M19.5386 19.5523H12.2548C11.5926 19.5523 11.0592 20.0925 11.0592 20.7548V32.2174C11.0592 32.8834 11.5963 33.4199 12.2548 33.4199H30.1516C30.8138 33.4199 31.3472 32.8797 31.3472 32.2174V4.95198C31.3472 4.95198 31.5238 1.11136 27.4257 0.0383519C26.6716 -0.157749 25.9322 0.423153 25.9358 1.21126L26.0021 27.0781C26.0021 27.7367 25.476 28.2769 24.8212 28.2843L21.9481 28.325C21.2823 28.3324 20.7342 27.7922 20.7342 27.1225V20.7585C20.7342 20.0925 20.1971 19.5523 19.5386 19.5523Z" fill="#00CAB9"/>
<path d="M37.6047 33.4237H33.7973C33.3227 33.4237 33.1646 33.1684 33.3227 32.6541L39.5876 10.6389C39.7715 10.1246 40.1688 9.86932 40.7758 9.86932H46.051C46.7132 9.86932 47.1068 10.1246 47.2393 10.6389L53.5041 32.6541C53.6623 33.1684 53.5041 33.4237 53.0295 33.4237H49.2221C48.9315 33.4237 48.7328 33.3682 48.6261 33.2572C48.5194 33.1462 48.4422 32.9464 48.387 32.6541L47.4342 29.1945C47.3423 28.8578 47.0369 28.6247 46.6911 28.6247H40.132C39.7862 28.6247 39.4809 28.8578 39.3889 29.1945L38.4361 32.6541C38.381 32.9464 38.2963 33.1499 38.1786 33.2572C38.0609 33.3645 37.8696 33.4237 37.6047 33.4237ZM43.3546 14.3057L40.7647 23.9109C40.6323 24.4067 41.0002 24.8914 41.5115 24.8914H45.3594C45.8671 24.8914 46.2386 24.4067 46.1062 23.9109L43.5164 14.3057H43.3546Z" fill="#04C2B2"/>
<path d="M73.9687 9.87299H79.8399C80.3953 9.87299 80.6712 10.1283 80.6712 10.6426V32.6577C80.6712 33.172 80.3953 33.4273 79.8399 33.4273H76.5879C76.0324 33.4273 75.7565 33.172 75.7565 32.6577V15.2935H75.5983L71.5518 27.5665C71.3936 28.0549 71.0625 28.2991 70.5585 28.2991H67.2256C66.7216 28.2991 66.3942 28.0549 66.236 27.5665L62.1122 15.2602H61.954V32.6577C61.954 32.95 61.8989 33.1535 61.7959 33.2608C61.6892 33.3718 61.4648 33.4273 61.1227 33.4273H57.8707C57.3152 33.4273 57.0393 33.172 57.0393 32.6577V10.6426C57.0393 10.1283 57.3152 9.87299 57.8707 9.87299H63.7787C64.1502 9.87299 64.4004 10.0432 64.5328 10.3873L68.7376 23.3189H68.9767L73.2219 10.3873C73.2955 10.0432 73.5456 9.87299 73.9687 9.87299Z" fill="#04C2B2"/>
<path d="M88.4848 33.4237H84.6773C84.2028 33.4237 84.0446 33.1684 84.2028 32.6541L90.4676 10.6389C90.6515 10.1246 91.0488 9.86932 91.6558 9.86932H96.931C97.5932 9.86932 97.9868 10.1246 98.1192 10.6389L104.384 32.6541C104.542 33.1684 104.384 33.4237 103.91 33.4237H100.102C99.8115 33.4237 99.6128 33.3682 99.5061 33.2572C99.3994 33.1462 99.3222 32.9464 99.267 32.6541L98.3142 29.1945C98.2223 28.8578 97.9169 28.6247 97.5711 28.6247H91.012C90.6662 28.6247 90.3609 28.8578 90.2689 29.1945L89.3161 32.6541C89.261 32.9464 89.1764 33.1499 89.0586 33.2572C88.9409 33.3645 88.7496 33.4237 88.4848 33.4237ZM94.2345 14.3057L91.6448 23.9109C91.5123 24.4067 91.8802 24.8914 92.3915 24.8914H96.2394C96.7471 24.8914 97.1186 24.4067 96.9862 23.9109L94.3964 14.3057H94.2345Z" fill="#04C2B2"/>
<path d="M112.12 33.4237H108.751C108.195 33.4237 107.919 33.1684 107.919 32.6541V10.6389C107.919 10.1246 108.195 9.86932 108.751 9.86932H118.19C120.254 9.86932 121.865 10.3947 123.028 11.4455C124.19 12.4963 124.771 13.9726 124.771 15.8782V18.7346C124.771 21.4948 123.594 23.3263 121.244 24.2291V24.3771L125.489 32.5468C125.728 33.1314 125.503 33.4274 124.816 33.4274H121.604C121.13 33.4274 120.784 33.3793 120.574 33.2794C120.361 33.1832 120.191 32.976 120.059 32.6578L116.715 25.9866C116.332 25.2244 115.56 24.7471 114.71 24.7471H113.434C113.117 24.7471 112.959 24.8803 112.959 25.1504V32.6578C112.952 33.1684 112.676 33.4237 112.12 33.4237ZM113.39 21.0064H117.274C118.12 21.0064 118.742 20.8399 119.139 20.5106C119.537 20.1813 119.735 19.6485 119.735 18.9159V16.0595C119.735 15.3047 119.537 14.7534 119.139 14.4093C118.742 14.0688 118.12 13.8949 117.274 13.8949H113.39C113.099 13.8949 112.952 14.0281 112.952 14.2982V20.5994C112.952 20.8732 113.095 21.0064 113.39 21.0064Z" fill="#04C2B2"/>
<path d="M134.844 10.6389V32.6541C134.844 33.1684 134.568 33.4237 134.012 33.4237H130.643C130.087 33.4237 129.811 33.1684 129.811 32.6541V10.6389C129.811 10.1246 130.087 9.86932 130.643 9.86932H134.012C134.564 9.87302 134.844 10.1283 134.844 10.6389Z" fill="#04C2B2"/>
<path d="M144.202 28.1511V32.6577C144.202 33.172 143.952 33.4273 143.448 33.4273H139.92C139.391 33.4273 139.126 33.172 139.126 32.6577V28.188C139.126 27.6996 139.391 27.4554 139.92 27.4554H143.448C143.949 27.4554 144.202 27.6848 144.202 28.1511Z" fill="#04C2B2"/>
<path d="M150.942 33.4237H147.134C146.66 33.4237 146.501 33.1684 146.66 32.6541L152.924 10.6389C153.108 10.1246 153.506 9.86932 154.113 9.86932H159.388C160.05 9.86932 160.444 10.1246 160.576 10.6389L166.841 32.6541C166.999 33.1684 166.841 33.4237 166.366 33.4237H162.559C162.268 33.4237 162.07 33.3682 161.963 33.2572C161.856 33.1462 161.779 32.9464 161.724 32.6541L160.771 29.1945C160.679 28.8578 160.374 28.6247 160.028 28.6247H153.469C153.123 28.6247 152.818 28.8578 152.726 29.1945L151.773 32.6541C151.718 32.9464 151.633 33.1499 151.516 33.2572C151.398 33.3645 151.207 33.4237 150.942 33.4237ZM156.691 14.3057L154.102 23.9109C153.969 24.4067 154.337 24.8914 154.848 24.8914H158.696C159.204 24.8914 159.576 24.4067 159.443 23.9109L156.853 14.3057H156.691Z" fill="#060606"/>
<path d="M175.611 10.6389V32.6541C175.611 33.1684 175.335 33.4237 174.78 33.4237H171.41C170.854 33.4237 170.578 33.1684 170.578 32.6541V10.6389C170.578 10.1246 170.854 9.86932 171.41 9.86932H174.78C175.331 9.87302 175.611 10.1283 175.611 10.6389Z" fill="#060606"/>
</svg>
