<svg width="19" height="19" viewBox="0 0 19 19" fill="currentColor" xmlns="http://www.w3.org/2000/svg">
                                <path d="M3.421 -6.80448e-08L3.267 0.643L0.231 14.636L0 15.636H4.013L3.524 17.925L3.293 18.925H9.029L9.158 18.256L10.007 14.295H12.219C13.7458 14.318 15.2324 13.8059 16.4212 12.8475C17.6099 11.8891 18.4257 10.5449 18.727 9.048C18.9117 8.34466 18.9335 7.60848 18.7909 6.89542C18.6483 6.18237 18.345 5.51122 17.904 4.933C17.2726 4.18389 16.4149 3.66026 15.46 3.441C15.303 2.67914 14.9378 1.97574 14.405 1.409C13.9537 0.955562 13.416 0.597241 12.8237 0.355227C12.2315 0.113213 11.5967 -0.00757721 10.957 -6.80448e-08H3.421ZM4.758 1.646H10.958C11.8009 1.63923 12.613 1.96222 13.221 2.546C13.563 2.92723 13.7979 3.39222 13.9019 3.89369C14.0059 4.39516 13.9752 4.91523 13.813 5.401C13.6186 6.54221 13.0154 7.57362 12.116 8.30255C11.2167 9.03148 10.0827 9.40808 8.926 9.362H5.376L5.25 10.006L4.401 13.993H2.058L4.758 1.646ZM6.841 2.855L6.687 3.498L5.839 7.3L5.608 8.3H8.515C9.23308 8.28426 9.92567 8.0308 10.4843 7.57932C11.0429 7.12783 11.436 6.50381 11.602 5.805H11.628C11.628 5.789 11.628 5.77 11.628 5.754C11.7218 5.41549 11.7405 5.06056 11.6828 4.71406C11.6252 4.36756 11.4924 4.03785 11.294 3.748C11.0809 3.46596 10.8048 3.23768 10.4878 3.0814C10.1707 2.92513 9.82147 2.8452 9.468 2.848L6.841 2.855ZM8.15 4.5H9.462C9.55438 4.48894 9.64804 4.50213 9.73378 4.53824C9.81952 4.57436 9.89438 4.63218 9.951 4.706C10.0148 4.80392 10.055 4.91532 10.0683 5.03143C10.0817 5.14753 10.0679 5.26515 10.028 5.375V5.4C9.92453 5.73467 9.72591 6.032 9.45637 6.25573C9.18682 6.47947 8.858 6.61993 8.51 6.66H7.661L8.15 4.5ZM15.506 5.22C15.9416 5.37924 16.3307 5.64457 16.638 5.992C16.9265 6.37171 17.1192 6.81536 17.1998 7.28537C17.2804 7.75537 17.2465 8.23787 17.101 8.692C16.9066 9.83321 16.3034 10.8646 15.404 11.5935C14.5047 12.3225 13.3707 12.6991 12.214 12.653H8.664L8.535 13.296L7.686 17.283H5.35L5.71 15.637H5.736L5.865 14.968L6.714 11.007H8.926C10.4528 11.03 11.9394 10.5179 13.1282 9.55954C14.3169 8.60115 15.1327 7.25692 15.434 5.76C15.472 5.575 15.488 5.4 15.51 5.221L15.506 5.22Z"></path>
                            </svg>