<svg width="20" height="21" viewBox="0 0 20 21" fill="none" stroke="currentColor" xmlns="http://www.w3.org/2000/svg">
                                <path d="M2.333 14.204L14.571 1.966C15.0509 1.48609 15.7018 1.21648 16.3805 1.21648C16.7166 1.21648 17.0493 1.28267 17.3598 1.41127C17.6703 1.53988 17.9524 1.72837 18.19 1.966C18.4276 2.20363 18.6161 2.48573 18.7447 2.79621C18.8733 3.10668 18.9395 3.43944 18.9395 3.7755C18.9395 4.11156 18.8733 4.44432 18.7447 4.75479C18.6161 5.06527 18.4276 5.34737 18.19 5.585L5.952 17.823C5.6728 18.1022 5.31719 18.2926 4.93 18.37L1 19.156L1.786 15.226C1.86345 14.8388 2.05378 14.4832 2.333 14.204Z" stroke-width="2" stroke-linecap="round" stroke-linejoin="round"></path>
                                <path d="M12.5 4.656L15.5 7.656" stroke-width="2"></path>
                            </svg>