<svg width="24" height="24" viewBox="0 0 24 24" fill="none" stroke="currentColor" xmlns="http://www.w3.org/2000/svg">
                                <path d="M9.217 1.068L9.635 7.968M13.818 7.968L14.236 1.068M9.217 22.191L9.635 15.291M13.818 15.291L14.236 22.191M22.287 9.121L15.387 9.539M15.387 13.722L22.287 14.14M1.164 9.121L8.064 9.539M8.064 13.722L1.164 14.14M22.85 11.85C22.85 17.9251 17.9251 22.85 11.85 22.85C5.77487 22.85 0.849998 17.9251 0.849998 11.85C0.849998 5.77487 5.77487 0.849998 11.85 0.849998C17.9251 0.849998 22.85 5.77487 22.85 11.85ZM15.85 11.85C15.85 14.0591 14.0591 15.85 11.85 15.85C9.64086 15.85 7.85 14.0591 7.85 11.85C7.85 9.64086 9.64086 7.85 11.85 7.85C14.0591 7.85 15.85 9.64086 15.85 11.85Z" stroke-width="1.7" stroke-linecap="round" stroke-linejoin="round"></path>
                            </svg>