<svg width="19" height="16" viewBox="0 0 19 16" fill="currentColor" xmlns="http://www.w3.org/2000/svg">
                                <path d="M14.84 6.509H7.29C6.571 6.509 6.509 7.091 6.509 7.809C6.509 8.527 6.571 9.109 7.29 9.109H14.84C15.559 9.109 15.621 8.527 15.621 7.809C15.621 7.091 15.558 6.509 14.84 6.509ZM17.44 13.018H7.29C6.571 13.018 6.509 13.6 6.509 14.318C6.509 15.036 6.571 15.618 7.29 15.618H17.443C18.162 15.618 18.224 15.036 18.224 14.318C18.224 13.6 18.162 13.018 17.443 13.018H17.44ZM7.29 2.6H17.443C18.162 2.6 18.224 2.018 18.224 1.3C18.224 0.582 18.162 0 17.443 0H7.29C6.571 0 6.509 0.582 6.509 1.3C6.509 2.018 6.571 2.6 7.29 2.6ZM3.124 6.509H0.781C0.0619999 6.509 0 7.091 0 7.809C0 8.527 0.0619999 9.109 0.781 9.109H3.124C3.843 9.109 3.905 8.527 3.905 7.809C3.905 7.091 3.843 6.509 3.124 6.509ZM3.124 13.018H0.781C0.0619999 13.018 0 13.6 0 14.318C0 15.036 0.0619999 15.618 0.781 15.618H3.124C3.843 15.618 3.905 15.036 3.905 14.318C3.905 13.6 3.843 13.018 3.124 13.018ZM3.124 0H0.781C0.0619999 0 0 0.582 0 1.3C0 2.018 0.0619999 2.6 0.781 2.6H3.124C3.843 2.6 3.905 2.018 3.905 1.3C3.905 0.582 3.843 0 3.124 0Z"></path>
                            </svg>